<mxfile host="app.diagrams.net" agent="Mozilla/5.0 (Windows NT 10.0; Win64; x64) AppleWebKit/537.36 (KHTML, like Gecko) Chrome/129.0.0.0 Safari/537.36" version="24.7.16">
  <diagram name="Page-1" id="THRChagNGyYunTtJFG5p">
    <mxGraphModel dx="1134" dy="637" grid="1" gridSize="10" guides="1" tooltips="1" connect="1" arrows="1" fold="1" page="1" pageScale="1" pageWidth="850" pageHeight="1100" math="0" shadow="0">
      <root>
        <mxCell id="0" />
        <mxCell id="1" parent="0" />
        <mxCell id="J9nTp-9adp7mOvqDDg9b-1" value="" style="group" vertex="1" connectable="0" parent="1">
          <mxGeometry x="125" y="120" width="600" height="218" as="geometry" />
        </mxCell>
        <mxCell id="J9nTp-9adp7mOvqDDg9b-2" style="edgeStyle=orthogonalEdgeStyle;rounded=0;orthogonalLoop=1;jettySize=auto;html=1;entryX=0;entryY=0.5;entryDx=0;entryDy=0;" edge="1" parent="J9nTp-9adp7mOvqDDg9b-1" source="J9nTp-9adp7mOvqDDg9b-3" target="J9nTp-9adp7mOvqDDg9b-4">
          <mxGeometry relative="1" as="geometry" />
        </mxCell>
        <mxCell id="J9nTp-9adp7mOvqDDg9b-3" value="&lt;b&gt;Waiter&lt;/b&gt;" style="rounded=1;whiteSpace=wrap;html=1;fillColor=#dae8fc;gradientColor=#7ea6e0;strokeColor=#6c8ebf;" vertex="1" parent="J9nTp-9adp7mOvqDDg9b-1">
          <mxGeometry width="160" height="120" as="geometry" />
        </mxCell>
        <mxCell id="J9nTp-9adp7mOvqDDg9b-4" value="&lt;b&gt;Chef&lt;/b&gt;" style="rounded=1;whiteSpace=wrap;html=1;fillColor=#f8cecc;gradientColor=#ea6b66;strokeColor=#b85450;" vertex="1" parent="J9nTp-9adp7mOvqDDg9b-1">
          <mxGeometry x="250" width="160" height="120" as="geometry" />
        </mxCell>
        <mxCell id="J9nTp-9adp7mOvqDDg9b-5" value="&lt;b&gt;Raw Items&lt;/b&gt;" style="shape=cylinder3;whiteSpace=wrap;html=1;boundedLbl=1;backgroundOutline=1;size=15;fillColor=#ffcd28;gradientColor=#ffa500;strokeColor=#d79b00;" vertex="1" parent="J9nTp-9adp7mOvqDDg9b-1">
          <mxGeometry x="500" width="100" height="120" as="geometry" />
        </mxCell>
        <mxCell id="J9nTp-9adp7mOvqDDg9b-6" style="edgeStyle=orthogonalEdgeStyle;rounded=0;orthogonalLoop=1;jettySize=auto;html=1;entryX=0;entryY=0.5;entryDx=0;entryDy=0;entryPerimeter=0;" edge="1" parent="J9nTp-9adp7mOvqDDg9b-1" source="J9nTp-9adp7mOvqDDg9b-4" target="J9nTp-9adp7mOvqDDg9b-5">
          <mxGeometry relative="1" as="geometry" />
        </mxCell>
        <mxCell id="J9nTp-9adp7mOvqDDg9b-7" value="&lt;b&gt;1&lt;/b&gt;" style="text;html=1;align=center;verticalAlign=middle;resizable=0;points=[];autosize=1;strokeColor=none;fillColor=none;" vertex="1" parent="J9nTp-9adp7mOvqDDg9b-1">
          <mxGeometry x="75" y="128" width="30" height="30" as="geometry" />
        </mxCell>
        <mxCell id="J9nTp-9adp7mOvqDDg9b-8" value="&lt;b&gt;2&lt;/b&gt;" style="text;html=1;align=center;verticalAlign=middle;resizable=0;points=[];autosize=1;strokeColor=none;fillColor=none;" vertex="1" parent="J9nTp-9adp7mOvqDDg9b-1">
          <mxGeometry x="325" y="128" width="30" height="30" as="geometry" />
        </mxCell>
        <mxCell id="J9nTp-9adp7mOvqDDg9b-9" value="&lt;b&gt;3&lt;/b&gt;" style="text;html=1;align=center;verticalAlign=middle;resizable=0;points=[];autosize=1;strokeColor=none;fillColor=none;" vertex="1" parent="J9nTp-9adp7mOvqDDg9b-1">
          <mxGeometry x="535" y="128" width="30" height="30" as="geometry" />
        </mxCell>
        <mxCell id="J9nTp-9adp7mOvqDDg9b-10" value="&lt;b&gt;frontend&lt;/b&gt;" style="text;html=1;align=center;verticalAlign=middle;resizable=0;points=[];autosize=1;strokeColor=none;fillColor=none;" vertex="1" parent="J9nTp-9adp7mOvqDDg9b-1">
          <mxGeometry x="45" y="150" width="70" height="30" as="geometry" />
        </mxCell>
        <mxCell id="J9nTp-9adp7mOvqDDg9b-11" value="&lt;b&gt;backend&lt;/b&gt;" style="text;html=1;align=center;verticalAlign=middle;resizable=0;points=[];autosize=1;strokeColor=none;fillColor=none;" vertex="1" parent="J9nTp-9adp7mOvqDDg9b-1">
          <mxGeometry x="300" y="150" width="70" height="30" as="geometry" />
        </mxCell>
        <mxCell id="J9nTp-9adp7mOvqDDg9b-12" value="&lt;b&gt;DB&lt;/b&gt;" style="text;html=1;align=center;verticalAlign=middle;resizable=0;points=[];autosize=1;strokeColor=none;fillColor=none;" vertex="1" parent="J9nTp-9adp7mOvqDDg9b-1">
          <mxGeometry x="530" y="158" width="40" height="30" as="geometry" />
        </mxCell>
        <mxCell id="J9nTp-9adp7mOvqDDg9b-13" value="&lt;b&gt;API Tier&lt;/b&gt;" style="text;html=1;align=center;verticalAlign=middle;resizable=0;points=[];autosize=1;strokeColor=none;fillColor=none;" vertex="1" parent="J9nTp-9adp7mOvqDDg9b-1">
          <mxGeometry x="305" y="188" width="70" height="30" as="geometry" />
        </mxCell>
        <mxCell id="J9nTp-9adp7mOvqDDg9b-14" value="&lt;b&gt;Data + HTML + CSS + JS&lt;/b&gt;" style="text;html=1;align=center;verticalAlign=middle;resizable=0;points=[];autosize=1;strokeColor=none;fillColor=none;" vertex="1" parent="J9nTp-9adp7mOvqDDg9b-1">
          <mxGeometry y="188" width="160" height="30" as="geometry" />
        </mxCell>
        <mxCell id="J9nTp-9adp7mOvqDDg9b-16" value="" style="group" vertex="1" connectable="0" parent="1">
          <mxGeometry x="250" y="550" width="350" height="220" as="geometry" />
        </mxCell>
        <mxCell id="J9nTp-9adp7mOvqDDg9b-17" value="" style="shape=cylinder3;whiteSpace=wrap;html=1;boundedLbl=1;backgroundOutline=1;size=15;fillColor=#ffcd28;gradientColor=#ffa500;strokeColor=#d79b00;" vertex="1" parent="J9nTp-9adp7mOvqDDg9b-16">
          <mxGeometry width="350" height="220" as="geometry" />
        </mxCell>
        <mxCell id="J9nTp-9adp7mOvqDDg9b-18" value="" style="rounded=1;whiteSpace=wrap;html=1;" vertex="1" parent="J9nTp-9adp7mOvqDDg9b-16">
          <mxGeometry x="10" y="70" width="100" height="50" as="geometry" />
        </mxCell>
        <mxCell id="J9nTp-9adp7mOvqDDg9b-19" value="" style="rounded=1;whiteSpace=wrap;html=1;" vertex="1" parent="J9nTp-9adp7mOvqDDg9b-16">
          <mxGeometry x="150" y="70" width="100" height="50" as="geometry" />
        </mxCell>
        <mxCell id="J9nTp-9adp7mOvqDDg9b-20" value="" style="rounded=1;whiteSpace=wrap;html=1;" vertex="1" parent="J9nTp-9adp7mOvqDDg9b-16">
          <mxGeometry x="10" y="140" width="100" height="50" as="geometry" />
        </mxCell>
        <mxCell id="J9nTp-9adp7mOvqDDg9b-21" value="" style="rounded=1;whiteSpace=wrap;html=1;" vertex="1" parent="J9nTp-9adp7mOvqDDg9b-16">
          <mxGeometry x="150" y="145" width="100" height="50" as="geometry" />
        </mxCell>
        <mxCell id="J9nTp-9adp7mOvqDDg9b-22" value="&lt;b&gt;User&lt;/b&gt;" style="text;html=1;align=center;verticalAlign=middle;resizable=0;points=[];autosize=1;strokeColor=none;fillColor=none;" vertex="1" parent="J9nTp-9adp7mOvqDDg9b-16">
          <mxGeometry x="30" y="40" width="50" height="30" as="geometry" />
        </mxCell>
        <mxCell id="J9nTp-9adp7mOvqDDg9b-23" value="&lt;b&gt;Transactions&lt;/b&gt;" style="text;html=1;align=center;verticalAlign=middle;resizable=0;points=[];autosize=1;strokeColor=none;fillColor=none;" vertex="1" parent="J9nTp-9adp7mOvqDDg9b-16">
          <mxGeometry x="150" y="40" width="100" height="30" as="geometry" />
        </mxCell>
        <mxCell id="J9nTp-9adp7mOvqDDg9b-24" value="Table" style="shape=table;startSize=30;container=1;collapsible=0;childLayout=tableLayout;strokeColor=default;fontSize=16;" vertex="1" parent="J9nTp-9adp7mOvqDDg9b-16">
          <mxGeometry x="30" y="80" width="60" height="30" as="geometry" />
        </mxCell>
        <mxCell id="J9nTp-9adp7mOvqDDg9b-25" value="" style="shape=tableRow;horizontal=0;startSize=0;swimlaneHead=0;swimlaneBody=0;strokeColor=inherit;top=0;left=0;bottom=0;right=0;collapsible=0;dropTarget=0;fillColor=none;points=[[0,0.5],[1,0.5]];portConstraint=eastwest;fontSize=16;" vertex="1" visible="0" parent="J9nTp-9adp7mOvqDDg9b-24">
          <mxGeometry y="30" width="60" height="10" as="geometry" />
        </mxCell>
        <mxCell id="J9nTp-9adp7mOvqDDg9b-26" value="" style="shape=partialRectangle;html=1;whiteSpace=wrap;connectable=0;strokeColor=inherit;overflow=hidden;fillColor=none;top=0;left=0;bottom=0;right=0;pointerEvents=1;fontSize=16;" vertex="1" parent="J9nTp-9adp7mOvqDDg9b-25">
          <mxGeometry width="20" height="10" as="geometry">
            <mxRectangle width="20" height="10" as="alternateBounds" />
          </mxGeometry>
        </mxCell>
        <mxCell id="J9nTp-9adp7mOvqDDg9b-27" value="" style="shape=partialRectangle;html=1;whiteSpace=wrap;connectable=0;strokeColor=inherit;overflow=hidden;fillColor=none;top=0;left=0;bottom=0;right=0;pointerEvents=1;fontSize=16;" vertex="1" parent="J9nTp-9adp7mOvqDDg9b-25">
          <mxGeometry x="20" width="20" height="10" as="geometry">
            <mxRectangle width="20" height="10" as="alternateBounds" />
          </mxGeometry>
        </mxCell>
        <mxCell id="J9nTp-9adp7mOvqDDg9b-28" value="" style="shape=partialRectangle;html=1;whiteSpace=wrap;connectable=0;strokeColor=inherit;overflow=hidden;fillColor=none;top=0;left=0;bottom=0;right=0;pointerEvents=1;fontSize=16;" vertex="1" parent="J9nTp-9adp7mOvqDDg9b-25">
          <mxGeometry x="40" width="20" height="10" as="geometry">
            <mxRectangle width="20" height="10" as="alternateBounds" />
          </mxGeometry>
        </mxCell>
        <mxCell id="J9nTp-9adp7mOvqDDg9b-29" value="" style="shape=tableRow;horizontal=0;startSize=0;swimlaneHead=0;swimlaneBody=0;strokeColor=inherit;top=0;left=0;bottom=0;right=0;collapsible=0;dropTarget=0;fillColor=none;points=[[0,0.5],[1,0.5]];portConstraint=eastwest;fontSize=16;" vertex="1" visible="0" parent="J9nTp-9adp7mOvqDDg9b-24">
          <mxGeometry y="40" width="60" height="10" as="geometry" />
        </mxCell>
        <mxCell id="J9nTp-9adp7mOvqDDg9b-30" value="" style="shape=partialRectangle;html=1;whiteSpace=wrap;connectable=0;strokeColor=inherit;overflow=hidden;fillColor=none;top=0;left=0;bottom=0;right=0;pointerEvents=1;fontSize=16;" vertex="1" parent="J9nTp-9adp7mOvqDDg9b-29">
          <mxGeometry width="20" height="10" as="geometry">
            <mxRectangle width="20" height="10" as="alternateBounds" />
          </mxGeometry>
        </mxCell>
        <mxCell id="J9nTp-9adp7mOvqDDg9b-31" value="" style="shape=partialRectangle;html=1;whiteSpace=wrap;connectable=0;strokeColor=inherit;overflow=hidden;fillColor=none;top=0;left=0;bottom=0;right=0;pointerEvents=1;fontSize=16;" vertex="1" parent="J9nTp-9adp7mOvqDDg9b-29">
          <mxGeometry x="20" width="20" height="10" as="geometry">
            <mxRectangle width="20" height="10" as="alternateBounds" />
          </mxGeometry>
        </mxCell>
        <mxCell id="J9nTp-9adp7mOvqDDg9b-32" value="" style="shape=partialRectangle;html=1;whiteSpace=wrap;connectable=0;strokeColor=inherit;overflow=hidden;fillColor=none;top=0;left=0;bottom=0;right=0;pointerEvents=1;fontSize=16;" vertex="1" parent="J9nTp-9adp7mOvqDDg9b-29">
          <mxGeometry x="40" width="20" height="10" as="geometry">
            <mxRectangle width="20" height="10" as="alternateBounds" />
          </mxGeometry>
        </mxCell>
        <mxCell id="J9nTp-9adp7mOvqDDg9b-33" value="" style="shape=tableRow;horizontal=0;startSize=0;swimlaneHead=0;swimlaneBody=0;strokeColor=inherit;top=0;left=0;bottom=0;right=0;collapsible=0;dropTarget=0;fillColor=none;points=[[0,0.5],[1,0.5]];portConstraint=eastwest;fontSize=16;" vertex="1" visible="0" parent="J9nTp-9adp7mOvqDDg9b-24">
          <mxGeometry y="50" width="60" height="10" as="geometry" />
        </mxCell>
        <mxCell id="J9nTp-9adp7mOvqDDg9b-34" value="" style="shape=partialRectangle;html=1;whiteSpace=wrap;connectable=0;strokeColor=inherit;overflow=hidden;fillColor=none;top=0;left=0;bottom=0;right=0;pointerEvents=1;fontSize=16;" vertex="1" parent="J9nTp-9adp7mOvqDDg9b-33">
          <mxGeometry width="20" height="10" as="geometry">
            <mxRectangle width="20" height="10" as="alternateBounds" />
          </mxGeometry>
        </mxCell>
        <mxCell id="J9nTp-9adp7mOvqDDg9b-35" value="" style="shape=partialRectangle;html=1;whiteSpace=wrap;connectable=0;strokeColor=inherit;overflow=hidden;fillColor=none;top=0;left=0;bottom=0;right=0;pointerEvents=1;fontSize=16;" vertex="1" parent="J9nTp-9adp7mOvqDDg9b-33">
          <mxGeometry x="20" width="20" height="10" as="geometry">
            <mxRectangle width="20" height="10" as="alternateBounds" />
          </mxGeometry>
        </mxCell>
        <mxCell id="J9nTp-9adp7mOvqDDg9b-36" value="" style="shape=partialRectangle;html=1;whiteSpace=wrap;connectable=0;strokeColor=inherit;overflow=hidden;fillColor=none;top=0;left=0;bottom=0;right=0;pointerEvents=1;fontSize=16;" vertex="1" parent="J9nTp-9adp7mOvqDDg9b-33">
          <mxGeometry x="40" width="20" height="10" as="geometry">
            <mxRectangle width="20" height="10" as="alternateBounds" />
          </mxGeometry>
        </mxCell>
      </root>
    </mxGraphModel>
  </diagram>
</mxfile>
